<svg xmlns="http://www.w3.org/2000/svg" xmlns:xlink="http://www.w3.org/1999/xlink" version="1.1" id="Layer_1" x="0px" y="0px" width="143.52px" height="120.827px" viewBox="0 0 143.52 120.827" enable-background="new 0 0 143.52 120.827" xml:space="preserve">
<g>
	<path fill-rule="evenodd" clip-rule="evenodd" d="M85.4 104.66c-0.1-0.21-0.149-0.32-0.32-0.41c-0.199-0.08-0.38-0.01-0.51-0.01 h-0.05c-0.31 0-0.66 0.01-1.04 0.23c-0.04 0.05-0.07-0.04-0.09-0.04l-0.12 1.369c-0.04 0.24-0.09 0.91-0.12 2.011l-0.09 0.6 c0 0.2 0 0.4 0.1 0.37l0.07 0.01c0.71 0 1.31-0.489 1.84-1.489c0.36-0.7 0.45-1.24 0.45-1.601v-0.1 C85.52 105 85.5 104.7 85.4 104.66z M85.4 104.66c-0.1-0.21-0.149-0.32-0.32-0.41c-0.199-0.08-0.38-0.01-0.51-0.01h-0.05 c-0.31 0-0.66 0.01-1.04 0.23c-0.04 0.05-0.07-0.04-0.09-0.04l-0.12 1.369c-0.04 0.24-0.09 0.91-0.12 2.011l-0.09 0.6 c0 0.2 0 0.4 0.1 0.37l0.07 0.01c0.71 0 1.31-0.489 1.84-1.489c0.36-0.7 0.45-1.24 0.45-1.601v-0.1 C85.52 105 85.5 104.7 85.4 104.66z M142.23 112.36c-6.84-14.83-13.72-29.68-20.54-44.521c-2-4.35-4.06-8.68-6.15-13.189 c-3.17 1.98-5.979 3.72-9 5.59C95.44 40.1 84.5 20.2 73.3 0c-12.23 24.53-24.24 48.61-36.5 73.2 c-4.15-4.35-7.87-8.26-11.99-12.6C16.13 80.7 6.7 99.8 0 120.46c1.55 0.1 2.4 0.3 3.2 0.3c6.66 0 13.3 0.1 20 0.1 c33.48 0 67.1 0 100.55-0.01c6.57 0 12.79-0.181 19.79-0.28v-6.28C142.52 113.6 142.5 113 142.2 112.36z M60.52 105.7 c0 0.51-0.34 1.03-0.58 1.56c-0.01 0.141-0.28 0.33-0.38 0.55c-0.18 0.431-0.43 0.86-0.75 1.271c-0.2 0.28-0.46 0.47-0.8 0.6 c-0.06 0-0.19 0.051-0.38 0.16l-0.15 0.021c-0.04-0.011-0.18-0.021-0.48-0.03c-0.84-0.19-1.31-0.37-1.51-0.54 c-0.27-0.18-0.4-0.42-0.61-0.74c-0.38-0.62-0.36-1.279-0.36-1.979V106.3c0-0.46-0.05-1.079 0.27-1.869c0.13-0.28 0.12-0.58 0.4-0.9 c0.39-0.4 0.71-0.65 0.94-0.74c0.33-0.1 0.6-0.149 0.81-0.149c0.22 0 0.5 0.1 0.7 0.159c0.24 0.1 0.4 0.3 0.4 0.6 c0 0.18-0.1 0.34-0.31 0.47c-0.09 0.08-0.16 0.12-0.25 0.12c-0.12 0-0.25-0.061-0.4-0.16c-0.05-0.03-0.08-0.05-0.12-0.05 c-0.11 0-0.33 0.18-0.74 0.529c-0.48 0.771-0.68 1.44-0.68 2v0.221c0 0.7 0.2 1.2 0.7 1.74c0.08 0.1 0.3 0.1 0.8 0.1 c0.1 0 0.22-0.13 0.33-0.13h0.03c0.35 0 0.71-0.25 1.09-1.08c0.25-0.63 0.38-0.979 0.38-1.36c0-0.42-0.09-0.729-0.27-0.92 c-0.05-0.029-0.11-0.06-0.15-0.06l-0.59 0.24l-0.16 0.02c-0.12 0-0.2-0.109-0.27-0.34c0.09-0.25 0.29-0.5 0.53-0.74 c0.22-0.14 0.51-0.21 0.76-0.21c0.39 0 0.9 0.2 1.2 0.62c0.25 0.2 0.6 0.6 0.6 1.13V105.65z M59.71 95.5 c-1.19-0.091-2.22-0.23-3.1-0.23h-1.26c-0.44 0-1.06-0.64-1.86-0.8c0-0.16-0.52-0.54-1.57-1.22c-1.28-1.311-2.17-2.511-2.55-3.66 c-1.2-2.851-1.85-5.311-1.85-7.41v-0.69c0-1.77 0.6-4.77 1.7-9c0.42-1.27 1.43-2.77 3-4.479c1.38-1.24 2.93-1.95 4.63-2.48 c0.85-0.3 1.55-0.26 2.07-0.26h0.14c2.29 0 4.7 0.7 7.1 1.91c1.24 0.8 2.5 1.8 3.4 3.34c0.5 0.7 0.9 1.1 0.9 1.57v0.149 c0 1.271-1.05 2.03-2.02 2.03h-0.04c-1.28 0-2.12-0.49-2.51-1.36c-0.31-0.76-1.09-1.609-2.36-2.489c-1.54-0.69-2.84-1.15-3.92-1.15 h-0.1c-1.32 0-2.71 1.47-4.17 3.28c-1.01 1.56-1.62 2.7-1.62 3.43c-0.77 2.84-1.26 4.95-1.26 6.35v0.061 c0 3.2 0.9 5.9 2.4 7.72c0.53 0.6 1.8 1.2 3.5 1.16h0.72l0.35-0.44v0.431c1.2-0.05 2.64-0.59 4.31-1.2 c0.65-0.32 0.97-1.16 0.97-2.28c0.12-1.39 0.19-2.49 0.19-3.17c0-1.149-0.13-1.75-0.4-1.75c-2.81-0.24-4.21-0.47-4.21-0.67 c-0.64-0.58-0.96-1.28-0.96-1.83c0-0.92 0.74-1.09 2.22-2.09h4.2c0.45 0 1.1 0 2.01-0.12c0.62 0 1.2 0.5 1.6 1.4 c0.24 1.1 0.3 2.2 0.3 3.19l-0.46 3.029c0 0.57-0.13 1.49-0.39 2.721c-0.06 2.38-0.21 3.569-0.47 3.6 c-0.96 1.15-1.65 1.721-2.05 1.721c-1.38 0.8-2.27 1.27-2.66 1.41c-0.6 0.229-1.55 0.3-2.86 0.3L59.71 95.471z M66.52 105.4 c0 0.13-0.01 0.22-0.01 0.3c-0.1 0.74-0.23 1.37-0.26 1.87c0 0.18-0.04 0.39-0.12 0.65c0 0.239-0.12 0.529-0.36 0.8 c-0.14 0.13-0.31 0.28-0.5 0.4c-0.09 0.13-0.15 0.26-0.19 0.26l-0.74 0.271c-0.18 0.02-0.34 0.27-0.46 0.27h-0.02 c-0.32 0-0.7-0.29-1.16-0.42c-0.03 0-0.07-0.26-0.13-0.33c-0.07-0.05-0.15-0.1-0.3-0.15c0-0.02-0.11-0.14-0.39-0.38 c-0.29-0.34-0.36-0.609-0.36-0.8c-0.06-0.1 0-0.54 0-1.31v-1.4l-0.13-2.05c0-0.351-0.01-0.561 0.19-0.641 c0.07-0.06 0.16-0.1 0.29-0.109L62 102.63c0.15 0.2 0.2 0.3 0.2 0.351c0.05 0 0.1 0.8 0.1 2.33l0.03 0.54l-0.03 0.7 c0 0.4 0.1 0.9 0.2 1.52c0.14 0.1 0.3 0.2 0.6 0.311c0.09 0.1 0.18-0.15 0.27-0.15h0.43c0.59 0 1 0 1.18-0.4 c0.34-0.79 0.5-1.199 0.5-1.76c0-1.04-0.03-1.72-0.1-2.14c-0.02-0.04-0.05 0.03-0.09 0.01c-0.07 0-0.2 0.29-0.38 0.29h-0.02 c-0.1 0-0.09-0.26-0.34-0.29c-0.12-0.07-0.08-0.37-0.08-0.5v-0.03c0-0.1-0.04-0.489 0.26-0.779c0.24-0.131 0.24-0.4 0.36-0.4h0.1 c0.19 0 0.3 0.2 0.3 0.26c0.17 0 0.3 0.3 0.5 0.431c0.38 0.4 0.5 0.9 0.5 1.329V105.4z M73.15 103.9 c-0.149 0.149-0.38 0.229-0.74 0.229c-0.16 0.03-0.49 0.05-1.11 0.08c-0.08 0.04-0.03 0.12-0.03 0.25l0.25 1.71v1.61l-0.19 1.5 c0 0.21-0.3 0.48-0.47 0.57c-0.11 0.07-0.31-0.62-0.59 0.38h-0.02c-0.12 0-0.18-0.34-0.2-0.54c-0.08-0.46-0.11-1.42-0.11-2.39 c0.04-0.63 0.06-1.061 0.06-1.301c0-0.3-0.02-0.84-0.06-1.64c-0.04-0.03-0.08-0.05-0.1-0.07l-1 0.11c-0.29 0-0.53-0.09-0.7-0.27 c-0.32-0.141-0.52-0.29-0.54-0.431l-0.08-0.16v-0.04c0-0.199 0.14-0.31 0.31-0.38c0-0.05 0.1-0.02 0.19-0.02l0.28-0.05l0.06 0.2 h0.15l0.01-0.2l0.15 0.09c0.18 0 0.6 0 1-0.029l0.22 0.14h1.55l1.311-0.14c0.35 0.1 0.5 0.2 0.5 0.3 C73.27 103.8 73.2 103.9 73.2 103.931z M71.09 49.42c-5.44 3.13-10.96 6.09-16.46 9.11c-0.88 0.48-1.79 0.91-3.49 1.8 C58.85 45 66.2 30.5 73.8 15.42c7.21 13.2 14.1 25.8 21.1 38.56c-3.14 2.17-6.09 4.21-9.83 6.8 c-3.289-3.59-6.609-7.1-9.8-10.73C73.93 48.5 72.8 48.4 71.1 49.42z M78.04 109.311l-0.329 0.2 c-0.381 0.21-0.69 0.421-0.94 0.421c-0.12 0.02-0.24 0.27-0.36 0.27h-0.06c-0.1 0-0.36-1-0.79-1H75.54l-0.069 0.2 c-0.29-0.04-0.601 0-0.94-0.311c-0.319-0.32-0.54-0.729-0.649-1.22l-0.03-0.181c0-0.159 0.06-0.27 0.18-0.329 c0.17-0.091 0.29-0.131 0.36-0.131c0.22 0 0.4 0.3 0.6 0.74l0.189 0.49c0.21 0.2 0.5 0.5 0.8 0.46l0.34 0.25h0.03 c0.37 0 1.03-0.47 1.52-0.98c0.28-0.319 0.65-0.84 0.65-1.159v-0.08c0-0.32-0.59-0.78-0.81-0.78H77.7c-0.13 0-0.41 0.17-0.899 0.3 l-0.21 0.15c-0.471-0.05-0.761-0.12-0.99-0.21c-0.4-0.12-0.62-0.32-0.84-0.561c-0.29-0.35-0.24-0.739-0.24-1.16v-0.149 c0-0.51 0.08-1.101 0.62-1.58c0.21-0.11 0.25-0.31 0.57-0.4c0.14-0.12 0.59-0.39 1.38-0.39h0.27c0.12 0 0.3 0.3 0.6 0.4 c0 0.1 0.1 0.3 0.2 0.37c0.17 0.1 0.3 0.3 0.3 0.5c0 0.189-0.04 0.37-0.12 0.41c-0.13 0.069-0.25 0.21-0.35 0.2 c-0.12-0.051-0.28 0.14-0.471 0.14h-0.12c-0.52 0-0.93-0.13-1.43 0.01c-0.32 0.221-0.38 0.29-0.38 0.601v0.04 c0 0.239-0.04 0.4 0 0.439c0.22 0.1 0.4 0.2 0.8 0.23c0.13 0 0.41-0.061 0.86-0.2c0.08-0.01 0.17-0.03 0.3-0.03 c0.74 0 1.3 0.4 1.6 1.04c0.16 0.4 0.2 0.8 0.2 1C79.26 108 78.8 108.7 78 109.311z M81.52 106.811v0.26 c0 0.77-0.12 1.55-0.18 2.1c-0.19 0.44-0.431 0.771-0.561 0.771c-0.01 0.04-0.02 0.3-0.029 0.3h-0.29l0.13-0.3 c-0.13-0.13-0.07-0.67-0.07-1.15v-2.71l-0.08-1.38c-0.02-0.22-0.15-0.5-0.21-0.8c0-0.19 0.11-0.38 0.31-0.54 c0.07-0.03 0.141-0.12 0.2-0.12H80.8c0.18 0 0.4 0.2 0.5 0.45c0.11 0.4 0.2 0.6 0.2 0.71v0.03l-0.03 0.159l0.03 0.66v0.51 l0.04 0.591L81.52 106.811z M86.67 106.63c-0.2 0.63-0.4 1.051-0.58 1.24c-0.21 0.25-0.351 0.38-0.44 0.4 c-0.21 0.229-0.39 0.39-0.54 0.479c-0.149 0.05-0.38 0.181-0.66 0.42c-0.05 0.03-0.16 0.03-0.34 0.1 c-0.109 0.06-0.27 0.05-0.47 0.08c-0.12 0.109-0.21 0.06-0.271 0.06c-0.13 0.05-0.31-0.13-0.52-0.13h-0.13l-0.2 0.43v0.03 c0 0 0.1 0.5 0 0.54h-0.29c-0.06-1-0.13-0.35-0.26-0.38c-0.08-0.15-0.11-0.51-0.11-0.61c0.061-0.85 0.12-2.08 0.15-3.68 c0.029-0.32 0.14-1.01 0.189-2.08c0-0.05 0.181-0.14 0.261-0.25h0.31c0.19 0 0.3 0.1 0.3 0.12l0.05-0.101 c0.04 0 0.1 0 0.15-0.039l0.239 0.02h0.79c0.601 0 0.94-0.11 0.94-0.05l0.17-0.09l0.08 0.01v0.05c0 0.2 0.8 0.7 1.1 1.3 c0.21 0.5 0.3 0.9 0.3 1.221C86.86 106.1 86.8 106.4 86.7 106.63z M92.55 109.66c0 0.03-0.05 0.21-0.15 0.3 l-1.95 0.27h-1.41c-0.159 0-0.359-0.24-0.6-0.22L88 109.75l-0.03-0.18l0.03-0.04l-0.051-2.38l0.03-0.8l-0.03-1.561l0.03-0.91 l-0.03-0.279c0.011-0.101 0.08-0.24 0.23-0.5l-0.05-0.03c0.06-0.04 0.1 0 0.14-0.01l1.09 0.18h0.21 c0.33 0 1.01-0.23 1.771-0.24c0.16 0 0.529-0.14 0.84-0.13c0.05 0.03-0.66 0.1 0.3 0.14v0.07c0 0.09-0.09 0.2 0.1 0.3 c0.069 0.02-0.07 0.07-0.07 0.16v0.05c0 0.16-0.18 0.24-0.33 0.24c-0.13 0.029-0.35 0.05-0.52 0.05l-0.73-0.021 c-0.37 0-0.88 0.04-1.55 0.08c-0.061 0.021-0.101 0.11-0.101 0.261l-0.029 0.56l0.01 0.51l-0.01 0.601c0 0.1 0.1 0.3 0.4 0.3 h0.31l0.65-0.27c0.35 0 0.52-0.19 0.52-0.131c0.011 0.1 0.1 0.2 0.2 0.391c0.181 0.1 0.3 0.2 0.3 0.24l0.04 0.3 c0 0.11-0.2 0.42-0.57 0.42h-0.58c-0.84 0-0.93-0.13-0.93-0.06c0 0 0 0.1 0 0.579l-0.07 0.011l0.07 0.06v0.15l-0.21 0.4 c0 0.04-0.16 0.08-0.11 0.11l0.391 0.01c0.91-0.04 1.72-0.06 2.43-0.06c0.22 0 0.3 0 0.3 0.06l-0.01 0.2 c0.06 0.2 0.1 0.3 0.2 0.271c0.101 0 0.1 0.2 0.1 0.34C92.73 109.4 92.7 109.6 92.5 109.66z M99.52 79.2 c0 2.03-0.62 4.09-1.56 6.16c-0.04 0.57-0.41 1.3-0.811 2.189c-0.72 1.721-1.71 3.41-2.96 5.051c-0.81 1.119-1.89 1.859-3.229 2.2 c-0.24 0-0.75 0.21-1.511 0.63l-0.68 0.09c-0.15-0.061-0.82-0.11-2.01-0.13c-3.32-0.73-5.36-1.44-6.15-2.11 c-1.07-0.71-2.01-1.7-2.85-2.97c-1.521-2.45-2.24-5.07-2.24-7.83v-0.74c0-1.81 0.6-4.28 1.88-7.399 c0.53-1.101 1.311-2.28 2.41-3.551c1.56-1.6 2.81-2.58 3.75-2.97c1.29-0.39 2.35-0.58 3.19-0.58c0.92 0 1.9 0.2 2.9 0.6 c0.95 0.6 1.4 1.3 1.4 2.189c0 0.71-0.42 1.33-1.25 1.86c-0.34 0.3-0.69 0.46-1.04 0.46c-0.46 0-1-0.21-1.58-0.63 c-0.23-0.13-0.44-0.19-0.61-0.19c-0.38 0-1.43 0.7-3.01 2.09c-1.97 3.061-3.04 5.69-3.04 7.91v0.91c0 2.8 1.1 5.2 3.1 7.3 c0.33 0.3 1.5 0.7 3.4 1.05c0.44 0.1 0.9 0.3 1.3 0.34h0.1c1.4 0 2.851-1.85 4.33-5.13c1-2.561 1.5-4.79 1.5-6.28 c0-1.689-0.35-2.899-1.04-3.649c-0.229-0.15-0.43-0.23-0.609-0.23l-2.36 0.92l-0.63 0.09c-0.5 0-0.87-0.439-1.13-1.33 c0.33-1 1.01-1.989 1.97-2.97c0.89-0.54 1.87-0.81 2.88-0.81c1.521 0 3.1 0.8 4.5 2.47c1.021 0.9 1.7 2.4 1.7 4.47V79.24z M85.08 104.25c-0.199-0.08-0.38-0.01-0.51-0.01h-0.05c-0.31 0-0.66 0.01-1.04 0.23c-0.04 0.05-0.07-0.04-0.09-0.04l-0.12 1.4 c-0.04 0.24-0.09 0.91-0.12 2.011l-0.09 0.569c0 0.2 0 0.4 0.1 0.37l0.07 0.01c0.71 0 1.31-0.489 1.84-1.489 c0.36-0.7 0.45-1.24 0.45-1.601v-0.1c0-0.561-0.04-0.83-0.12-0.91C85.3 104.5 85.2 104.3 85.1 104.25z M85.4 104.7 c-0.1-0.21-0.149-0.32-0.32-0.41c-0.199-0.08-0.38-0.01-0.51-0.01h-0.05c-0.31 0-0.66 0.01-1.04 0.2 c-0.04 0.05-0.07-0.04-0.09-0.04l-0.12 1.369c-0.04 0.24-0.09 0.91-0.12 2.011l-0.09 0.569c0 0.2 0 0.4 0.1 0.37l0.07 0 c0.71 0 1.31-0.489 1.84-1.489c0.36-0.7 0.45-1.24 0.45-1.601v-0.1C85.52 105 85.5 104.7 85.4 104.66z M85.4 104.7 c-0.1-0.21-0.149-0.32-0.32-0.41c-0.199-0.08-0.38-0.01-0.51-0.01h-0.05c-0.31 0-0.66 0.01-1.04 0.2 c-0.04 0.05-0.07-0.04-0.09-0.04l-0.12 1.369c-0.04 0.24-0.09 0.91-0.12 2.011l-0.09 0.569c0 0.2 0 0.4 0.1 0.37l0.07 0 c0.71 0 1.31-0.489 1.84-1.489c0.36-0.7 0.45-1.24 0.45-1.601v-0.1C85.52 105 85.5 104.7 85.4 104.66z"/>
</g>
<path fill="#FFFFFF" d="M82.36 103.23l-0.03 0.01H82.5c0.01-0.02 0.02-0.05 0.02-0.08v-0.01L82.36 103.23z"/>
</svg>
