<?xml version="1.0" encoding="utf-8"?>
<!-- Generator: Adobe Illustrator 16.0.0, SVG Export Plug-In . SVG Version: 6.00 Build 0)  -->
<!DOCTYPE svg PUBLIC "-//W3C//DTD SVG 1.1//EN" "http://www.w3.org/Graphics/SVG/1.1/DTD/svg11.dtd">
<svg version="1.1" id="Layer_1" xmlns="http://www.w3.org/2000/svg" xmlns:xlink="http://www.w3.org/1999/xlink" x="0px" y="0px"
	 width="143.519px" height="120.827px" viewBox="0 0 143.519 120.827" enable-background="new 0 0 143.519 120.827"
	 xml:space="preserve">
<g>
	<path fill-rule="evenodd" clip-rule="evenodd" d="M142.229,112.36c-6.84-14.83-13.72-29.68-20.54-44.521
		c-2-4.35-4.06-8.68-6.15-13.189c-3.17,1.98-5.979,3.72-9,5.59C95.439,40.1,84.469,20.23,73.319,0
		c-12.23,24.53-24.24,48.61-36.5,73.21c-4.15-4.35-7.87-8.26-11.99-12.6c-8.7,20.09-18.11,39.18-24.83,59.85
		c1.55,0.15,2.38,0.29,3.21,0.3c6.66,0.03,13.31,0.061,19.97,0.061c33.48,0,67.09,0.02,100.55-0.01c6.57,0,12.79-0.181,19.79-0.28
		v-6.28C142.519,113.62,142.519,113.03,142.229,112.36z M90.019,110.24h-38c-2.49,0-4.5-2.01-4.5-4.5c0-1.24,0.5-2.37,1.32-3.18
		c0.81-0.82,1.94-1.32,3.18-1.32h38c2.49,0,4.5,2.01,4.5,4.5S92.509,110.24,90.019,110.24z M90.019,94.24h-38
		c-2.49,0-4.5-2.01-4.5-4.5c0-1.24,0.5-2.37,1.32-3.18c0.81-0.82,1.94-1.32,3.18-1.32h38c2.49,0,4.5,2.01,4.5,4.5
		S92.509,94.24,90.019,94.24z M90.019,79.24h-38c-2.49,0-4.5-2.01-4.5-4.5c0-1.24,0.5-2.37,1.32-3.18c0.81-0.82,1.94-1.32,3.18-1.32
		h38c2.49,0,4.5,2.01,4.5,4.5S92.509,79.24,90.019,79.24z M85.039,60.78c-3.289-3.59-6.609-7.1-9.8-10.73
		c-1.31-1.5-2.439-1.61-4.15-0.63c-5.44,3.13-10.96,6.09-16.46,9.11c-0.88,0.48-1.79,0.91-3.49,1.77
		c7.71-15.3,15.03-29.81,22.63-44.88c7.21,13.18,14.12,25.8,21.1,38.56C91.729,56.15,88.779,58.19,85.039,60.78z"/>
</g>
</svg>
