<?xml version="1.0" encoding="utf-8"?>
<!-- Generator: Adobe Illustrator 16.0.0, SVG Export Plug-In . SVG Version: 6.00 Build 0)  -->
<!DOCTYPE svg PUBLIC "-//W3C//DTD SVG 1.1//EN" "http://www.w3.org/Graphics/SVG/1.1/DTD/svg11.dtd">
<svg version="1.1" id="Layer_1" xmlns="http://www.w3.org/2000/svg" xmlns:xlink="http://www.w3.org/1999/xlink" x="0px" y="0px"
	 width="225.818px" height="388.219px" viewBox="16 34 225.818 388.219" enable-background="new 16 34 225.818 388.219"
	 xml:space="preserve">
<g>
	<title>Layer 1</title>
	<g id="layer1">
		<path id="path2652" fill="#007F3F" d="M118.899,34l-0.125,2.438c-0.055,1.341-0.167,5.386-0.25,9L118.399,52l-3.688-3.812
			c-4.264-4.438-4.832-4.615-4.812-1.562c0.008,1.237,1.746,4.144,3.844,6.469c3.359,3.724,3.831,4.897,4.031,9.844
			c0.151,3.734-0.142,5.402-0.844,4.969c-0.581-0.358-1.031-1.301-1.031-2.094s-0.45-1.438-1-1.438c-0.55,0-1-1.742-1-3.875
			c0-4.438-2.518-7.54-4.094-5.062c-0.502,0.79-0.71,1.965-0.469,2.625c0.533,1.457-2.345,0.507-4.281-1.406
			c-0.727-0.718-1.898-1.281-2.625-1.281c-2.705,0-2.262,2.821,1.031,6.594c3.917,4.487,4.128,5.383,1.531,6.062
			c-1.276,0.333-1.714,1.11-1.375,2.406c0.562,2.152,3.246,2.535,5.062,0.719c1.361-1.361,1.396-1.29,1.625,2.469
			c0.191,3.137,0.018,3.207-3.406,1.25c-3.352-1.916-4-1.868-4,0.406c0,1.06,1.462,3.069,3.25,4.469
			c2.438,1.909,2.709,2.414,1.125,2c-1.38-0.36-2.323-0.001-2.719,1.031c-0.861,2.244-1.557,2.058-8.219-2.281
			c-3.269-2.129-6.438-3.696-7.031-3.469c-2.082,0.798-0.76,4.614,2.156,6.219l2.938,1.594l-2.688,0.312
			c-1.466,0.175-2.901,0.94-3.188,1.688c-0.561,1.462,1.939,2.895,3.438,1.969c0.5-0.309,0.938-0.083,0.938,0.5
			s0.788,1.082,1.75,1.125c1.271,0.057,1.36,0.223,0.344,0.625c-1.06,0.42-0.852,0.986,0.906,2.312l2.344,1.75l-4.188,0.719
			c-4.308,0.728-5.29,2.335-2.719,4.469c0.969,0.804,1.991,0.885,3.125,0.25c1.886-1.056,5.438-0.465,5.438,0.906
			c0,0.486,0.9,0.906,2,0.906s2-0.45,2-1s1.013-0.987,2.25-0.969l2.25,0.031l-2.469,2.031c-1.918,1.596-2.157,2.218-1.094,2.875
			c1.501,0.928,4.093,0.25,5.375-1.406c0.464-0.599,0.585,0.152,0.25,1.688c-0.5,2.29-0.275,2.75,1.406,2.75
			c1.11,0,2.05-0.562,2.094-1.25c0.054-0.853,0.247-0.8,0.625,0.156c0.405,1.023,0.91,0.745,1.844-1l1.281-2.406l1.25,2.75
			c0.687,1.508,0.933,3.067,0.531,3.469s-3.986,0.893-7.969,1.094c-6.664,0.336-7.629,0.135-12.031-2.656
			c-4.383-2.779-7.594-3.244-7.594-1.094c0,0.474,1.237,1.577,2.75,2.438l2.75,1.562l-3.5-0.656
			c-3.462-0.634-9.287-3.633-11.844-6.125c-0.727-0.708-2.189-1.281-3.25-1.281c-2.038,0-2.566,1.934-0.969,3.531
			c0.6,0.6-0.937,1.084-4.188,1.281c-2.831,0.172-5.527,0.54-5.969,0.812c-3.288,2.032,4.814,5.723,10.688,4.875l4.031-0.562
			l-2.812,1.594c-1.703,0.966-2.704,2.26-2.5,3.281c0.487,2.445,4.807,1.625,7.562-1.438c1.282-1.425,3.016-2.359,4-2.125
			c1.38,0.329,1.201,0.661-0.906,1.531c-3.405,1.406-4.438,3.052-2.375,3.844c0.892,0.342,1.397,1.198,1.125,1.906
			s0.178,1.541,0.969,1.844s1.438,0.156,1.438-0.312c0-0.817,3.231-2.218,5.656-2.469c0.638-0.066,2.101-0.991,3.25-2.031
			s2.094-1.556,2.094-1.156c0,1.038-2.186,3.08-4.781,4.469c-1.226,0.656-2.219,1.64-2.219,2.188c0,1.886,3.079,2.179,4.969,0.469
			c1.804-1.633,1.865-1.619,1.344,0.375c-0.763,2.918,1.284,2.627,3.312-0.469c1.269-1.937,1.891-2.241,2.531-1.25
			c0.695,1.076,0.979,1.066,1.688-0.031c0.474-0.735,1.712-1.226,2.75-1.094c4.035,0.513,9.339-3.094,9.5-6.469
			c0.086-1.82,0.186-1.766,0.812,0.406c0.595,2.064,0.104,3.065-2.844,5.719c-1.964,1.768-6.346,4.673-9.75,6.469l-6.188,3.25
			l-4.812-2.406c-2.646-1.322-5.375-2.494-6.062-2.625c-1.785-0.339-1.543,1.593,0.5,4c1.575,1.855,1.566,1.905,0.031,0.719
			c-0.938-0.726-2.086-1.075-2.562-0.781s-2.121-0.109-3.656-0.906c-3.683-1.911-4.833-1.817-4.156,0.312
			c0.448,1.412-0.022,1.728-2.438,1.656c-1.646-0.049-3.228-0.353-3.531-0.656c-1.217-1.217-4.438,0.575-4.438,2.469
			c0,1.537,0.486,1.889,2.094,1.469c2.007-0.525,2.02-0.478,0.344,1.375c-1.81,2-1.513,2.276,2.281,1.969
			c1.744-0.141,2.106,0.196,1.594,1.531c-0.541,1.408-0.196,1.646,1.875,1.25c2.069-0.396,2.424-0.159,2.031,1.344
			c-0.534,2.043,0.099,2.263,2.594,0.938c2.452-1.303,5.547,2.836,3.531,4.719c-1.128,1.054-1.47,1.012-1.906-0.125
			c-0.299-0.78-2.071-1.426-4.031-1.5c-1.923-0.072-3.267,0.267-2.969,0.75s-0.337,0.632-1.438,0.344
			c-2.525-0.661-2.604,0.858-0.125,2.406c1.312,0.819,1.719,1.92,1.375,3.719c-0.605,3.164-0.757,3.19-4.438,0.094
			c-1.634-1.375-3.624-2.5-4.406-2.5c-1.676,0-1.761,0.491-0.469,2.906c1.049,1.961,0.391,2.008-7.188,0.562
			c-2.47-0.471-3.75-0.34-3.75,0.375c0,1.295,5.192,4.156,7.562,4.156c1.367,0,1.447,0.252,0.438,1.469
			c-0.994,1.197-0.958,1.611,0.219,2.062c0.805,0.309,1.88,0.467,2.375,0.375c2.089-0.391,3.39,0.176,3.156,1.344
			c-0.153,0.768,0.812,1.222,2.5,1.188c2.116-0.043,2.756,0.418,2.781,2c0.032,1.975,0.111,1.955,2-0.312
			c1.561-1.874,1.969-2.013,1.969-0.688c0,0.918,0.449,1.403,1,1.062c0.551-0.341,1.428,0.546,1.969,1.969s1.667,2.836,2.5,3.156
			s1.531,1.203,1.531,1.969s0.723,1.406,1.625,1.406s2.208,0.764,2.906,1.719c1.197,1.637,1.419,1.623,3.625-0.25l2.344-1.969
			l-1.781,2.094c-1.077,1.278-4.412,2.733-8.625,3.75c-8.807,2.125-10.934,2.059-14.531-0.312c-3.332-2.196-4.958-1.79-4.062,1.031
			c0.502,1.584,0.12,1.938-2.25,1.938c-1.577,0-3.323-0.448-3.875-1c-0.672-0.672-1.644-0.54-2.938,0.406
			c-1.856,1.357-1.812,1.483,1.281,3.25c2.332,1.332,3.07,2.343,2.656,3.656c-0.369,1.17-0.082,1.743,0.781,1.625
			c2.896-0.395,4.018,0.099,3.469,1.531c-0.959,2.5,2.691,3.692,5.469,1.781c1.822-1.254,2.091-1.313,1.188-0.188
			c-1.689,2.104-0.065,4.303,2.562,3.469c3.787-1.202,4.808,0.721,1.094,2.062c-4.771,1.724-9.529,1.689-11.312-0.094
			c-1.973-1.973-5.036-1.997-4.281-0.031c0.467,1.216-0.23,1.379-3.906,0.875c-5.38-0.737-6.054,0.925-1.094,2.719
			c2.406,0.87,3.257,1.716,2.938,2.938c-0.534,2.042,2.625,3.177,5.062,1.812c1.327-0.742,1.656-0.453,1.656,1.531
			c0,2.027,0.366,2.375,2.156,1.906c1.769-0.462,2.026-0.265,1.469,1.188c-0.546,1.424-0.267,1.703,1.344,1.281
			c1.108-0.29,2.031-0.124,2.031,0.375c0,1.752,2.115,0.874,4.781-1.969c3.211-3.424,5.112-4.181,7.469-2.969
			c2.739,1.409,2.054,2.547-1.25,2.062c-3.444-0.505-3.952,1.018-1.469,4.562c1.452,2.073,1.446,2.219-0.406,2.219
			c-1.092,0-2.675,0.675-3.5,1.5c-0.825,0.825-2.168,1.5-3,1.5s-1.775,0.422-2.094,0.938s-2.331,0.904-4.469,0.875
			s-4.47,0.306-5.188,0.75s-2.763,0.713-4.531,0.594c-2.663-0.179-3.264,0.177-3.531,2.062c-0.232,1.638-1.014,2.297-2.812,2.375
			c-1.375,0.06-2.95,0.234-3.5,0.375s-1.788,0.16-2.75,0.062s-1.75,0.222-1.75,0.688c0,1.326,5.534,4.281,8.031,4.281
			c2.188,0,2.228,0.056,0.469,2c-1.766,1.952-1.748,2,0.812,2c1.959,0,2.476,0.373,2.031,1.531
			c-0.485,1.264-0.063,1.429,2.281,0.875c1.582-0.373,3.1-0.662,3.375-0.656c3.119,0.061,3.844,0.404,3.375,1.625
			c-1.044,2.722,1.546,2.646,3.031-0.094c1.414-2.607,1.494-2.642,1.531-0.531c0.022,1.237,0.4,2.283,0.812,2.344
			c6.11,0.893,7.113,0.597,8.344-2.375l1.25-3l0.875,2.375l0.875,2.406l1.938-2.5c1.918-2.497,1.915-2.5,1.938-0.25
			c0.03,3.034,1.812,2.861,2.594-0.25c0.345-1.375,1.071-2.5,1.594-2.5s0.626,0.485,0.25,1.094
			c-0.478,0.773,0.296,0.904,2.562,0.406c2.406-0.528,3.157-0.407,2.844,0.531c-0.614,1.844-6.877,4.969-9.969,4.969
			c-1.462,0-2.861,0.562-3.125,1.25c-0.294,0.769-2.249,1.205-5.094,1.156c-2.545-0.044-4.625,0.271-4.625,0.688
			c0,1.925,3.471,4.007,6.219,3.719c1.633-0.172,3.043,0.084,3.125,0.594c0.266,1.666-5.597,2.603-19.844,3.156
			c-16.055,0.625-22.5,1.328-22.5,2.406c0,0.416-1.125,0.544-2.5,0.281c-1.42-0.271-2.5-0.021-2.5,0.594
			c0,1.402,3.267,3.156,5.906,3.156c1.136,0,2.094,0.45,2.094,1s-0.49,1-1.062,1s-2.036,0.93-3.25,2.094l-2.188,2.125l3.25-0.438
			c2.15-0.294,3.25-0.035,3.25,0.781c0,0.74,0.798,1.033,2,0.719c1.118-0.293,2-0.031,2,0.594c0,1.615,2.544,1.379,4-0.375
			c0.685-0.825,1.682-1.5,2.25-1.5s0.316,0.807-0.594,1.812s-1.656,2.131-1.656,2.5c0,1.061,3.814,0.797,4.5-0.312
			c0.99-1.602,2.314-1.16,3,1c0.803,2.53,1.944,2.514,5.562-0.062l2.906-2.062l-0.625,3.062c-0.753,3.766,1.064,4.069,5.125,0.875
			c2.667-2.099,2.743-2.097,1.688-0.125c-1.242,2.321-0.645,3.424,1.438,2.625c0.778-0.299,2.088,0.009,2.906,0.688
			c1.033,0.857,1.5,0.904,1.5,0.125c0-0.617,0.675-1.125,1.5-1.125s1.5,0.619,1.5,1.406c0,0.971,0.885,1.336,2.75,1.125
			c10.41-1.179-3.054,4.875-15.156,6.812c-7.912,1.268-8.706,1.219-11.312-0.5c-1.541-1.016-3.344-1.84-4.031-1.844
			c-2.068-0.011-1.408,1.991,1,3.031c1.652,0.713,1.054,0.79-2.25,0.281c-2.475-0.381-5.625-0.631-7-0.562s-4.731-0.524-7.438-1.312
			s-5.071-1.305-5.25-1.125c-1.043,1.043,5.359,5.167,8.938,5.75l4.25,0.688l-3.75,0.125c-2.611,0.087-3.75,0.58-3.75,1.625
			c0,0.825,0.788,1.572,1.75,1.656s2.2,0.247,2.75,0.375s1.645,0.28,2.438,0.344c1.061,0.085,0.927,0.487-0.5,1.531
			c-2.471,1.807-1.297,3.105,1.469,1.625c1.721-0.922,2.094-0.826,2.094,0.531c0,1.283,0.715,1.544,3.25,1.188
			c1.788-0.252,4.15-0.783,5.25-1.188c1.971-0.724,1.945-0.715,0.031,0.844c-1.949,1.588-1.531,1.955,1.719,1.625
			c0.996-0.102,1.75,0.517,1.75,1.406c0,2.139,0.81,1.963,3.188-0.688l2.031-2.25l-1.625,2.719c-0.885,1.493-1.594,3.17-1.594,3.75
			c0,1.546,4.906,0.404,7.25-1.688c1.964-1.754,1.979-1.721,1.219,0.719c-1.057,3.39-2.285,4.106-11.5,6.875
			c-7.655,2.3-8.117,2.329-12.25,0.75c-4.506-1.721-10.719-2.211-10.719-0.844c0,0.44,0.523,1.367,1.188,2.031
			c0.812,0.812-0.525,0.685-4.094-0.375c-2.919-0.867-5.992-1.327-6.844-1c-1.307,0.502-1.189,0.999,0.75,3.062l2.281,2.438
			l-3.375-0.969c-4.351-1.248-9.636-1.246-10.406,0c-0.795,1.286,5.893,4.025,9.844,4.031h3.156l-2.938,2.344
			c-2.899,2.32-2.872,5.364,0.031,4.25c0.966-0.37,1.406,0.233,1.406,1.938c0,1.771,0.522,2.469,1.906,2.469
			c1.061,0,2.625,0.688,3.469,1.531c1.272,1.272,1.87,1.307,3.562,0.25c1.121-0.7,2.062-1.613,2.062-2.031s0.788,0.037,1.781,1
			c1.915,1.855,2.46,4.25,0.969,4.25c-0.491,0-0.564,0.485-0.188,1.094c0.476,0.77-0.265,0.915-2.438,0.438
			c-1.994-0.438-3.125-0.313-3.125,0.375c0,0.612-1.946,1.094-4.5,1.094c-4.686,0-5.571,0.866-3,3
			c1.001,0.831,3.117,1.052,6.25,0.656l4.75-0.594l-3.719,1.969c-2.583,1.369-3.539,2.453-3.125,3.531
			c0.372,0.969,1.206,1.294,2.219,0.875c0.892-0.369,2.3-0.772,3.125-0.906s0.938-0.049,0.25,0.188
			c-2.533,0.871-1.225,2.477,1.5,1.844c1.968-0.457,2.334-0.354,1.281,0.344c-2.646,1.755-0.296,2.265,2.875,0.625
			c1.701-0.88,3.094-1.175,3.094-0.656s-0.562,1.161-1.25,1.406s-0.902,0.818-0.469,1.281s2.069,0.35,3.656-0.25
			c2.364-0.893,2.814-0.831,2.375,0.312c-0.386,1.006-0.029,1.193,1.312,0.719c1.561-0.552,1.66-0.421,0.562,0.75
			c-1.023,1.092-4.466,1.354-15.75,1.188c-8.731-0.129-14.438,0.168-14.438,0.75c0,0.529,0.698,0.969,1.562,0.969
			s2.197,0.635,2.969,1.406c1.204,1.204,1.179,1.487-0.156,2c-0.856,0.328-2.976,0.585-4.719,0.594
			c-3.674,0.018-6.196,1.321-5.312,2.75c1.091,1.766,6.054,2.086,10.156,0.656c5.469-1.906,5.766-1.797,2.938,1.031
			c-3.526,3.526-3.27,5.652,0.531,4.562c1.632-0.468,3.432-1.149,4-1.5s1.072,0.192,1.156,1.188c0.083,0.995,0.22,2.32,0.281,2.969
			c0.061,0.648,0.414,1.508,0.781,1.875c0.788,0.788,6.812-2.584,6.812-3.812c0-0.464,0.409-0.577,0.938-0.25
			c0.616,0.381,0.616,1.506,0,3.125c-0.529,1.392-0.938,2.979-0.938,3.531c0,1.321,4.726-2.1,9.469-6.844
			c3.538-3.539,4.044-2.934,0.75,0.906c-0.808,0.942-1.168,2.479-0.812,3.406c0.575,1.499,0.905,1.413,3.188-0.719l2.594-2.375
			l-0.344,2.5c-0.317,2.296-0.998,2.597-8.344,3.812c-5.162,0.854-8.542,0.985-9.531,0.375c-2.507-1.548-7.969-2.467-7.969-1.344
			c0,0.556,0.788,1.223,1.75,1.469s-0.5,0.241-3.25,0c-4.02-0.354-4.755-0.202-3.75,0.812c1.912,1.93,1.483,2.647-1.25,2.125
			c-3.232-0.618-7.769,0.537-7,1.781c0.33,0.534,1.624,0.969,2.875,0.969c4.274,0,3.674,1.376-1.531,3.469
			c-8.873,3.566-6.937,6.219,2.188,3c4.618-1.629,6.424-1.347,3.031,0.469c-1.147,0.614-2.062,1.822-2.062,2.688
			c0,1.206,0.605,1.421,2.656,0.906c2.36-0.593,2.537-0.494,1.375,0.906c-2.695,3.247,0.163,3.254,4.625,0
			c2.083-1.52,2.167-1.505,1.594,0.719c-0.538,2.086-0.43,2.187,1.094,0.938c1.504-1.233,1.605-1.177,1,0.5
			c-0.598,1.655-0.362,1.602,1.812-0.375c2.547-2.316,4.114-2.121,3.156,0.375c-0.764,1.991,1.633,1.726,5.438-0.594
			c1.811-1.104,3.25-1.484,3.25-0.875c0,0.678,1.047,0.854,2.75,0.469c1.861-0.421,2.265-0.331,1.25,0.281
			c-0.825,0.498-3.975,1.407-7,2.031c-6.513,1.344-8.535,2.438-7.531,4.062c0.689,1.115,2.034,0.994,8.031-0.625
			c1.532-0.414,1.239,0.222-1.25,2.625c-1.788,1.726-3.25,3.348-3.25,3.625c0,0.993,5.56-0.24,8.75-1.938
			c3.505-1.864,4.044-1.294,1.719,1.781c-2.031,2.686-1.836,3.869,0.531,3.25c1.3-0.34,2-0.008,2,0.906
			c0,1.87,0.916,1.769,3.25-0.344c1.846-1.67,1.929-1.659,1.594,0.25c-0.536,3.051,5.013,2.131,7.969-1.312l2.312-2.688l-0.656,3.25
			c-0.869,4.301,1.642,4.414,5.531,0.25c1.542-1.65,2.933-3,3.125-3s0.417,1.164,0.5,2.594c0.228,3.932,1.857,4.992,3.938,2.562
			c1.643-1.919,1.878-1.956,3.094-0.375c1.204,1.564,1.339,1.541,1.906-0.469c0.367-1.3,1.158-1.967,1.969-1.656
			c0.862,0.331,1.604-0.452,2.031-2.156c0.463-1.846,0.929-2.312,1.469-1.438c0.432,0.699,1.722,1.418,2.875,1.594
			c1.629,0.249,2.585-0.664,4.281-4.156c2.191-4.51,4.502-6.249,3.312-2.5c-0.769,2.422-0.19,2.486,3.031,0.375
			c1.355-0.889,2.499-2.576,2.562-3.75c0.093-1.708,0.226-1.785,0.594-0.375c0.76,2.913,2.311,0.891,2.344-3.062
			c0.024-2.992,0.205-3.356,1.031-1.938c0.561,0.963,1.957,1.75,3.094,1.75c1.97,0,2.047,0.365,1.406,7.75
			c-0.448,5.16-1.497,9.369-3.125,12.594c-0.953,1.888-1.753,3.568-2.156,4.5h24.875c1.103-0.883,0.606-2.433-0.531-5.156
			c-1.773-4.244-2.457-12.91-1.062-13.375c0.545-0.182,1.772,1.001,2.75,2.656c1.823,3.086,4.064,4.223,3.031,1.531
			c-1.181-3.078,0.679-1.393,2.031,1.844c1.079,2.583,1.943,3.354,3.75,3.219c1.296-0.097,3.004,0.293,3.781,0.875
			c1.013,0.759,1.526,0.727,1.812-0.125c0.266-0.789,1.057-0.537,2.344,0.75c2.574,2.574,3.855,2.45,3.25-0.312
			c-0.288-1.314-0.145-1.814,0.344-1.188c1.153,1.479,4.344,2.554,4.344,1.469c0-1.01,5.52-0.652,8.406,0.531
			c1.519,0.623,1.8,0.427,1.312-0.844c-0.339-0.885-0.094-1.789,0.562-2.031c0.912-0.336,0.923-0.77-0.031-1.781
			c-2.27-2.406-1.33-2.717,2.406-0.812c4.129,2.105,5.282,1.796,3.281-0.844c-1.07-1.412-1.085-1.526-0.031-0.594
			c0.728,0.645,1.93,0.947,2.688,0.656s1.406-0.129,1.406,0.375s0.609,1.766,1.375,2.812c1.199,1.64,1.639,1.713,3.062,0.531
			c1.436-1.191,1.839-1.046,3.25,0.969l1.625,2.312l0.906-2.406c0.835-2.236,0.989-2.28,2.188-0.656
			c1.583,2.146,2.291,2.179,4.25,0.219c1.219-1.219,1.287-1.825,0.312-3c-0.672-0.81-0.924-1.469-0.562-1.469s0.138-1.013-0.5-2.25
			c-0.971-1.883-0.606-1.773,2.219,0.781c6.223,5.627,6.633,5.835,8.406,4.062c0.883-0.883,1.252-2.146,0.844-2.844
			c-0.418-0.714,0.096-0.596,1.188,0.281c5.286,4.244,10.638,5.08,7.031,1.094c-1.628-1.8-1.574-1.939,1.031-2.594l2.719-0.688
			l-2.938-2.375c-3.841-3.14-1.787-3.147,3.719,0c2.394,1.368,4.938,2.493,5.625,2.5c2.018,0.02,1.436-1.575-1-2.75
			c-2.025-0.977-1.872-1.096,1.781-1.156c2.232-0.037,4.932-0.724,6-1.531c1.847-1.396,1.823-1.469-1.031-1.5
			c-4.283-0.047-19.516-2.82-22.688-4.125c-3.886-1.599-4.623-4.044-0.781-2.594c3.371,1.272,5.075,0.221,2.594-1.594
			c-1.44-1.053-0.976-1.179,2.844-0.875c4.876,0.388,5.915-0.842,2.281-2.688c-1.947-0.989-1.617-1.114,2.625-0.906
			c5.724,0.28,7.336-1.601,2.406-2.812L222.399,383l3.25-0.375c3.806-0.454,4.142-1.483,1-3.094c-1.838-0.942-1.06-1.07,4.25-0.625
			c5.985,0.502,6.318,0.422,4.531-1c-1.068-0.85-2.725-1.531-3.688-1.531s-2.037-0.496-2.406-1.094
			c-0.42-0.681,0.208-1.029,1.688-0.906c4.178,0.349,6.875,0.019,6.875-0.875c0-0.479-3.17-1.182-7.031-1.562
			s-6.806-1.056-6.531-1.5c0.274-0.444,3.156-1.404,6.406-2.125c6.13-1.36,10.01-3.396,8.781-4.625
			c-0.628-0.628-6.193,0.278-13.625,2.25c-2.284,0.605-2.226,0.418,0.906-2.281c5.153-4.441,2.245-4.897-5.188-0.812
			c-7.463,4.102-11.736,4.438-20,1.594c-9.377-3.227-24.586-10.947-25.719-13.062c-1.402-2.619-0.605-2.542,1.938,0.188
			c1.122,1.204,2.062,1.821,2.062,1.375s0.675-0.247,1.5,0.438c1.239,1.028,1.5,0.933,1.5-0.562c0-1.507,0.512-1.32,3.125,1.125
			l3.125,2.938l-0.594-3.219c-0.599-3.174-0.559-3.205,2.125-2.062c1.495,0.637,3.394,1.678,4.219,2.312
			c3.877,2.984,4.328,2.918,3.625-0.594c-0.531-2.653-0.427-3.114,0.531-2.156c1.74,1.74,5.844,1.543,5.844-0.281
			c0-1.863,1.615-1.957,2.688-0.156c0.44,0.738,2.05,2.119,3.562,3.094c2.268,1.462,2.75,1.517,2.75,0.312c0-0.803-0.9-2.255-2-3.25
			s-2-2.287-2-2.844s0.253-0.716,0.594-0.375s1.33-0.079,2.188-0.938c1.083-1.082,2.708-1.412,5.312-1.062
			c2.591,0.348,3.926,0.082,4.281-0.844c0.392-1.021,1.302-1.126,3.812-0.406c8.82,2.529,10.443-0.354,1.938-3.438
			c-5.75-2.085-6.477-3.138-1.094-1.594c6.842,1.962,15.742,0.477,11.969-2c-0.825-0.542-3.525-1.052-6-1.125
			c-3.821-0.113-4.071-0.214-1.594-0.75c1.604-0.348,3.118-1.26,3.375-2.031c0.39-1.172-1.188-1.304-9.688-0.719
			c-10.008,0.689-10.168,0.689-8.938-1.281c1.832-2.933,0.573-3.44-4.406-1.75c-2.692,0.914-6.147,1.298-8.844,0.969
			c-5.781-0.705-24.909-7.115-27.156-9.094c-2.349-2.068-2.217-3.502,0.25-2.719c1.122,0.355,2,0.175,2-0.406
			c0-1.085,1.498-0.772,6.5,1.406c1.65,0.719,5.271,1.328,8.062,1.344c2.791,0.016,5.491,0.121,6,0.219
			c2.341,0.447,2.587-0.236,0.844-2.312c-1.254-1.493-0.861-1.325,1.156,0.5c3.459,3.13,4.438,3.391,4.438,1.219
			c0-1.32,0.322-1.312,2.562,0.156c1.509,0.988,2.862,1.3,3.25,0.75c0.366-0.518,2.012-1.525,3.656-2.25
			c2.871-1.265,2.917-1.363,1.062-2.719c-2.264-1.655-1.688-1.792,1.875-0.438c1.936,0.736,2.594,0.667,2.594-0.312
			c0-0.791,2.538-1.829,6.5-2.656c3.575-0.746,6.5-1.766,6.5-2.25s0.423-0.587,0.969-0.25s1.791,0.162,2.75-0.375
			c1.524-0.854,1.387-1.08-1.031-1.688c-2.085-0.523-2.62-1.137-2.188-2.5c0.425-1.338-0.022-1.875-1.719-2.125
			c-1.619-0.238-0.469-0.94,3.938-2.344c6.829-2.174,8.516-4.143,2.531-2.969c-5.526,1.084-19.25,1.33-19.25,0.344
			c0-0.469,0.45-0.844,1-0.844s1-0.455,1-1s-2.138-0.959-4.75-0.906c-6.562,0.134-17.051-2.06-17.688-3.719
			c-0.358-0.934,0.288-1.375,1.969-1.375c1.358,0,2.469-0.436,2.469-0.969s0.675-0.723,1.5-0.406c0.825,0.316,1.5,0.047,1.5-0.594
			c0-0.768,0.754-0.619,2.219,0.406c1.222,0.855,3.36,1.549,4.75,1.531l2.531-0.031l-2.312-1.938l-2.281-1.906l4.781-0.312
			l4.812-0.344l-3.5-1.688l-3.5-1.688l3.062-0.031c1.952-0.025,3.947-0.945,5.438-2.531c1.292-1.375,2.81-2.5,3.406-2.5
			s1.68-0.919,2.375-2.031c1.828-2.928-0.5-3.515-6.25-1.562c-6.2,2.105-7.485,2.047-6.844-0.406
			c0.632-2.416,0.467-2.43-5.812-0.375c-4.777,1.562-5.274,1.518-12.906-0.656c-10.293-2.931-12.932-5.676-5-5.219
			c0.817,0.047,1.8-0.405,2.188-1.031c0.492-0.797,1.321-0.609,2.719,0.656c1.567,1.418,2.877,1.663,6.062,1.125
			c4.544-0.768,4.826-1.148,2.312-3.219c-1.798-1.481-1.134-1.436,3.156,0.281c1.537,0.615,1.794,0.431,1.281-0.906
			c-0.473-1.233-0.092-1.656,1.438-1.656c1.393,0,1.901-0.475,1.531-1.438c-0.303-0.789-0.032-1.662,0.625-1.938
			c0.838-0.353,0.724-0.925-0.438-1.875c-1.518-1.242-1.457-1.533,0.75-3.656c3.603-3.467,2.933-4.192-2.344-2.5
			c-13.124,4.209-17.935,4.46-21.156,1.031c-1.826-1.943-1.932-2.472-0.719-2.938c0.815-0.312,2.831-0.067,4.5,0.562
			c4.274,1.613,5.188,0.005,1.625-2.875c-2.498-2.02-2.666-2.395-1-2.25c3.498,0.303,5.5-0.095,5.5-1.125
			c0-0.55-0.788-1.027-1.75-1.062c-1.417-0.051-1.366-0.246,0.344-0.938c1.161-0.469,2.379-1.554,2.719-2.438
			c0.534-1.391,0.335-1.454-1.594-0.375c-3.488,1.952-24.329,1.654-28.719-0.406c-3.069-1.44-3.231-1.647-1.156-1.719
			c1.895-0.065,2.282-0.481,1.844-2.156c-0.491-1.876-0.382-1.948,1.125-0.656c2.191,1.878,5.188,2.926,5.188,1.812
			c0-0.481,0.9-0.663,2-0.375c1.118,0.292,2,0.031,2-0.594c0-0.614,1.125-1.094,2.5-1.094c3.324,0,3.159-0.995-0.688-4.156
			l-3.219-2.625l5.344,0.844c5.511,0.871,7.517,0.509,6.469-1.188c-1.024-1.657,1.663-3.875,4.688-3.875
			c3.407,0,3.878-1.651,0.656-2.344c-1.278-0.275-0.738-0.45,1.25-0.375c2.275,0.086,3.413-0.271,3.25-1.062
			c-0.138-0.67,0.227-1.219,0.844-1.219c0.755,0,0.717-0.51-0.156-1.562c-0.828-0.998-2.233-1.397-3.875-1.062
			c-1.416,0.289-2,0.299-1.312,0c2.309-1.004,1.286-2.605-1.25-1.969c-2.028,0.509-2.34,0.312-1.812-1.062
			c0.472-1.229,0.266-1.453-0.719-0.844c-0.739,0.457-2.489,0.914-3.906,1.031s-3.688,0.525-5.062,0.906l-2.5,0.688l2.75-2.344
			c3.178-2.727,3.639-4.325,0.812-2.812c-2.789,1.493-4.836,1.367-3.281-0.188c2.245-2.245,1.359-4.015-0.938-1.875
			c-1.174,1.094-3.531,2.653-5.25,3.469c-6.109,2.899-22.594-1.048-22.594-5.406c0-0.872-0.559-2.121-1.219-2.781
			c-0.803-0.803-0.825-1.188-0.094-1.188c0.601,0,1.339,0.674,1.656,1.5c0.366,0.953,1.794,1.451,3.875,1.375
			c1.804-0.066,4.294,0.221,5.531,0.625c1.848,0.604,2.25,0.336,2.25-1.375v-2.062l3.406,2c2.449,1.445,3.611,1.707,4.125,0.875
			c0.394-0.637,0.102-1.584-0.656-2.094c-1.188-0.799,4.65-0.692,8.625,0.156c0.55,0.117,2.022-0.127,3.281-0.531
			c2.113-0.678,2.151-0.883,0.688-2.5c-1.468-1.622-1.388-1.784,0.969-2.375c2.889-0.725,3.465-2.597,0.812-2.656
			c-1.103-0.024-0.64-0.539,1.25-1.406c1.65-0.757,4.323-2.472,5.938-3.812l2.906-2.438l-3.656-0.688
			c-2.027-0.38-3.688-1.121-3.688-1.656c0-0.562-1.164-0.708-2.75-0.312c-2.4,0.598-2.613,0.508-1.5-0.844
			c1.931-2.345-0.945-3.061-3.906-0.969c-1.386,0.979-4.393,1.707-7.281,1.75c-3.939,0.059-4.5-0.139-2.781-0.906
			c1.944-0.868,2.137-1.683,1.281-5.5c-0.041-0.183-1.585,0.605-3.438,1.75s-4.89,2.068-6.75,2.062
			c-6.235-0.02-16.966-4.174-23.781-9.219c-2.624-1.942-2.068-2.344,0.969-0.719c1.574,0.843,1.944,0.703,1.969-0.75
			c0.029-1.705,0.078-1.722,1.062-0.031c0.567,0.974,1.437,1.528,1.938,1.219s2.047,0.183,3.438,1.094
			c2.501,1.639,2.516,1.615,2.531-1.219c0.008-1.576,0.346-2.355,0.75-1.75c0.875,1.311,4.653,3.406,6.156,3.406
			c0.586,0,1.133-1.013,1.188-2.25c0.095-2.136,0.121-2.123,0.781,0.25c0.382,1.375,0.906,2.293,1.156,2.062
			c0.25-0.23,1.392,0.078,2.531,0.688c1.69,0.904,2.329,0.757,3.438-0.781c0.748-1.038,1.747-1.635,2.219-1.344
			s0.546-0.631,0.188-2.062c-0.625-2.491-0.54-2.564,2.094-1.562c3.251,1.236,4.262,0.623,2.5-1.5c-1.053-1.269-0.948-1.5,0.531-1.5
			c1.683,0,1.66-0.106,0.031-1.906c-0.946-1.045-1.293-2.152-0.781-2.469s1.717,0.302,2.688,1.375
			c1.524,1.684,2.503,1.835,6.375,1.062c0.205-0.041-0.106-0.668-0.719-1.406c-1.301-1.568-0.531-2.656,1.906-2.656
			c0.947,0,2.795-0.887,4.094-1.969l2.375-1.969l-3-0.188c-1.65-0.104-4.103-0.09-5.438,0.031c-2.113,0.192-2.273,0.009-1.125-1.375
			c2.187-2.635,0.647-2.627-3.219,0c-4.192,2.849-6.717,3.345-4.719,0.938c1.057-1.273,0.998-1.433-0.375-0.906
			c-1.908,0.732-2.186-0.626-0.469-2.344c2.561-2.562-0.156-2.177-3.312,0.469c-6.215,5.209-6.979,5.375-14,3.25
			c-7.361-2.227-12.297-5.009-13.781-7.781c-0.908-1.697-0.701-1.937,1.469-1.812c1.369,0.079,2.7,0.842,2.969,1.688
			s1.438,1.601,2.594,1.688c1.688,0.127,1.983-0.271,1.531-2c-0.501-1.917-0.29-1.848,1.781,0.562c1.28,1.49,3.32,2.719,4.562,2.719
			c1.96,0,2.193-0.38,1.688-2.906c-0.757-3.785,1.59-4.83,4.031-1.781c1.668,2.083,7.292,3.545,7.312,1.906
			c0.005-0.406-1.458-1.94-3.25-3.438c-2.485-2.077-2.827-2.729-1.469-2.75c0.98-0.015,2.028,0.616,2.344,1.438s0.952,1.281,1.406,1
			s1.092-0.059,1.438,0.5s1.833,1.031,3.281,1.031c2.52,0,2.545-0.073,0.688-1.438c-1.872-1.375-1.84-1.463,0.875-2.5
			c1.548-0.591,3.348-1.074,4-1.094s0.062-0.675-1.312-1.438c-2.438-1.352-2.412-1.381,1.375-1.031
			c2.454,0.227,4.41-0.16,5.312-1.062c2.198-2.198,0.64-3.438-4.312-3.438c-2.767,0-4.258-0.412-3.875-1.031
			c1.26-2.039-2.432-2.073-6.594-0.062c-5.101,2.464-6.047,2.589-5.281,0.594c0.361-0.942-0.01-1.5-1-1.5s-1.362-0.558-1-1.5
			c0.673-1.754,0.326-1.815-2.969-0.562c-2.143,0.814-2.379,0.688-1.938-1c0.525-2.009-1.153-2.712-2.25-0.938
			c-0.345,0.558-2.462,1.974-4.719,3.125c-3.627,1.851-4.564,1.942-8.125,0.875c-3.32-0.995-3.744-1.373-2.344-2.156
			c0.934-0.522,1.719-1.629,1.719-2.469c0-1.184-1.025-1.466-4.531-1.25c-3.411,0.21-4.98-0.214-6.438-1.688
			c-2.194-2.219-4.316-10.148-2.938-11c0.853-0.527,1.33,1.604,0.969,4.344c-0.092,0.702,0.788,2.623,1.969,4.281
			c1.714,2.407,2.443,2.772,3.562,1.844c0.771-0.64,1.436-2.336,1.5-3.781c0.092-2.078,0.24-2.207,0.625-0.625
			c0.757,3.107,3.353,5.5,5.969,5.5c2.043,0,2.232-0.277,1.344-1.938c-1.306-2.441-1.315-3.356-0.031-2.562
			c0.55,0.34,1,0.145,1-0.438s0.45-1.062,1-1.062s1,0.63,1,1.406c0,1.793,5.843,6.785,7.062,6.031
			c0.503-0.311,0.938-1.433,0.938-2.5s0.449-1.938,1.031-1.938s0.792-0.562,0.438-1.25s0.188-0.231,1.219,1.031
			s2.219,1.968,2.625,1.562s1.714-0.892,2.938-1.062c2.708-0.377,6.75-2.371,6.75-3.344c0-0.39-1.338-1.262-2.969-1.938
			s-2.868-1.746-2.75-2.375c0.12-0.637-1.152-1.194-2.844-1.25c-3.499-0.115-8.59-2.491-6.688-3.125
			c0.686-0.229,1.25-1.064,1.25-1.844c0-1.586-5-1.991-6.562-0.531c-1.512,1.412-5.438,2.336-5.438,1.281
			c0-0.527,1.139-1.236,2.562-1.594c2.132-0.535,2.373-0.923,1.375-2.125c-0.987-1.189-0.839-1.443,0.688-1.469
			c2.228-0.038,5.99-2.698,5.094-3.594c-0.345-0.345-2.685-0.843-5.188-1.125c-5.004-0.564-4.979-0.548-3.5-3.312
			c0.959-1.792,1.202-1.819,3.406-0.375c2.226,1.459,2.416,1.409,3.031-0.531c0.362-1.14,1.083-1.815,1.594-1.5
			s0.938,0.114,0.938-0.469s0.9-1.062,2-1.062s2-0.64,2-1.406c0-1.529-2.113-2.594-5.094-2.594c-2.271,0-2.576-1.836-0.438-2.656
			c0.822-0.315,1.284-0.903,1.031-1.312s0.663-1.33,2.031-2.062c3.371-1.804,2.537-3.469-1.75-3.469h-3.531l2.531-3.312
			c1.974-2.586,2.237-3.556,1.281-4.5c-0.952-0.941-1.921-0.428-4.5,2.375c-3.058,3.323-3.375,3.451-4.438,1.75
			c-0.63-1.009-1.594-1.812-2.125-1.812c-1.189,0-4.348,5.596-5.031,8.938c-0.505,2.47-9.709,10.355-11.094,9.5
			c-0.395-0.244-0.589-2.914-0.469-5.938s-0.177-5.5-0.656-5.5s-0.733-1.661-0.562-3.688c0.259-3.074,0.763-3.819,3.094-4.438
			c2.417-0.641,2.724-0.499,2.219,1.094c-0.912,2.874,1.527,3.605,3.469,1.031c1.026-1.361,1.991-1.872,2.375-1.25
			c0.682,1.103,4.656,0.52,4.656-0.688c0-0.929-4.978-5.586-5.844-5.469c-0.368,0.05-1.45-0.125-2.406-0.375
			c-2.822-0.738-0.986-2.144,2-1.531c5.013,1.028,9.531,0.836,9.969-0.438c0.236-0.688-0.228-1.25-1.031-1.25
			c-0.804,0-2.008-0.681-2.688-1.5s-1.637-1.239-2.125-0.938s-0.876,0.195-0.875-0.25s1.353-1.712,3-2.812
			c3.028-2.022,3.859-3.5,1.969-3.5c-1.821,0-8.371,3.029-9.25,4.281c-0.521,0.741-0.621,0.356-0.25-0.969
			c0.333-1.191,0.175-2.43-0.344-2.75c-1.088-0.673-5.125,5.76-5.125,8.156c0,0.885-0.298,1.327-0.656,0.969
			s-1.281,0.108-2.031,1.062c-1.189,1.511-1.29,1.103-0.844-3.156c0.414-3.957,1.353-5.888,5-10.156
			c2.478-2.9,4.531-5.92,4.531-6.719c0-2.403-5.025-0.823-6.062,1.906c-1.651,4.343-3.468,2.837-3.094-2.562
			c0.273-3.94-0.082-5.428-1.75-7.219L118.899,34z M112.118,69.094c0.457,0.027,1.543,0.895,2.781,2.281
			c2.056,2.303,3,4.381,3,6.656c0,1.826-0.19,3.344-0.406,3.344c-0.538,0-1.827-3.099-2.281-5.469
			c-0.206-1.071-1.032-2.666-1.844-3.562s-1.469-2.257-1.469-3C111.899,69.158,111.965,69.084,112.118,69.094z M109.68,83.781
			c1.903,0.14,6.518,3.324,7.25,5.25c1.303,3.426,0.562,4.065-1.688,1.438c-0.987-1.152-2.348-2.094-3.031-2.094
			c-1.158,0-3.888-3.867-3.156-4.469C109.196,83.79,109.408,83.761,109.68,83.781z M136.993,91.938
			c0.241,0.001,0.533,0.043,0.844,0.125c1.649,0.431,1.262,1.025-2.594,3.969c-2.499,1.907-5.424,3.546-6.469,3.625
			s-1.875,0.473-1.875,0.906s-0.505,0.812-1.094,0.812s-0.926-1.013-0.75-2.25c0.276-1.947,0.848-2.22,4.094-1.938
			c2.886,0.251,3.75-0.037,3.75-1.25c0-0.867,0.675-1.562,1.5-1.562c0.825,0,1.5-0.633,1.5-1.406
			C135.899,92.293,136.271,91.934,136.993,91.938z M125.399,106.25l2.344,1.156c1.289,0.628,3.426,0.863,4.75,0.531
			c1.363-0.342,2.406-0.171,2.406,0.406c0,0.561-0.433,1.031-0.938,1.031s-1.564,0.232-2.344,0.531s-2.484-0.407-3.812-1.562
			L125.399,106.25z M136.368,108.719c0.227,0.033,0.561,0.266,1.031,0.656c1.118,0.928,1.5,0.943,1.5,0.062
			c0-0.65,0.492-0.86,1.125-0.469c0.798,0.493,0.589,1.129-0.688,2.062c-2.576,1.883-3.438,1.679-3.438-0.781
			C135.899,109.142,135.989,108.663,136.368,108.719z M151.43,112.375c0.857,0,1.309,0.45,0.969,1c-0.8,1.294-2.5,1.294-2.5,0
			C149.899,112.825,150.573,112.375,151.43,112.375z M127.899,128.375c0.55,0,1,2.25,1,5c0,5.07-0.151,5.505-1.344,4.312
			C126.49,136.623,126.796,128.375,127.899,128.375z M120.274,141.719c0.358-0.061,0.625,0.157,0.625,0.594
			c0,0.583-0.45,1.062-1,1.062c-1.281,0-1.281-0.708,0-1.5C120.036,141.79,120.154,141.739,120.274,141.719z M128.336,143.844
			c0.058-0.005,0.15,0.081,0.219,0.25c0.274,0.677,0.285,2.027,0.031,3s-0.479,0.431-0.5-1.219
			C128.071,144.638,128.164,143.859,128.336,143.844z M115.899,144.375c0.55,0,1,0.195,1,0.438s-0.45,0.723-1,1.062
			c-0.55,0.34-1,0.145-1-0.438S115.349,144.375,115.899,144.375z M110.899,146.375c0.55,0,1,0.195,1,0.438s-0.45,0.723-1,1.062
			c-0.55,0.34-1,0.145-1-0.438S110.349,146.375,110.899,146.375z M90.086,146.406c0.684,0.067,1.533,0.519,2.188,1.344
			c2.027,2.555,5.388,2.894,7.25,0.719c1.647-1.924,3.998-1.949,2.812-0.031c-0.316,0.512,0.112,0.938,0.938,0.938
			s1.785-0.45,2.125-1c0.807-1.306,2.5-1.314,2.5,0c0,0.563-1.237,1.513-2.75,2.094s-5.322,1.28-8.438,1.562
			c-4.962,0.45-5.799,0.277-6.75-1.5c-0.597-1.116-1.062-2.508-1.062-3.094C88.899,146.677,89.403,146.339,90.086,146.406z
			 M181.836,199.375c0.583,0,1.062,0.45,1.062,1c0,1.281-0.708,1.281-1.5,0C181.059,199.825,181.254,199.375,181.836,199.375z
			 M98.243,211.375c0.612,0-0.573,0.9-2.625,2c-3.632,1.946-5.719,2.489-5.719,1.5C89.899,214.254,96.766,211.375,98.243,211.375z
			 M184.586,254.094c1.102-0.006,2.197,0.109,2.875,0.375c1.366,0.535,0.694,0.763-2.312,0.812c-2.337,0.039-4.25-0.102-4.25-0.312
			C180.899,254.438,182.75,254.104,184.586,254.094z M206.961,259.5c0.347-0.014,0.764,0.043,1.125,0.188
			c0.798,0.319,0.54,0.546-0.625,0.594c-1.054,0.043-1.645-0.199-1.312-0.531C206.315,259.584,206.614,259.514,206.961,259.5z
			 M207.211,284.406c0.045-0.014,0.119,0,0.188,0c0.55,0,1.675,0.436,2.5,0.969c0.825,0.533,1.05,0.969,0.5,0.969
			c-0.55,0-1.675-0.436-2.5-0.969C207.177,284.908,206.897,284.497,207.211,284.406z M33.024,324.812
			c0.472-0.07,0.606,0.138,0.344,0.562c-0.336,0.544-1.014,1-1.531,1c-1.438,0-1.139-0.741,0.594-1.406
			C32.653,324.884,32.867,324.836,33.024,324.812z M49.18,333.406l2.281,2.438l2.25,2.438l1.719-2.625
			c1.564-2.387,1.78-2.434,2.688-0.812c0.745,1.331,1.201,1.439,1.781,0.5c0.55-0.891,0.956-0.642,1.438,0.875
			c0.684,2.153,2.562,3.005,2.562,1.156c0-0.55,1.237-1.003,2.75-1h2.75l-3,1.594c-1.934,1.02-4.522,1.393-7.25,1.094
			c-2.328-0.255-3.985-0.044-3.688,0.438c0.789,1.275-0.704,1.043-3.781-0.562c-1.571-0.819-2.812-1.003-3-0.438
			c-0.178,0.533-1.143,0.658-2.125,0.281c-1.659-0.637-1.616-0.846,0.438-3.031L49.18,333.406z M72.43,334.5
			c0.21-0.001,0.414,0.002,0.594,0.062c0.749,0.25,0.29,0.709-1.062,1.062c-1.664,0.435-2.055,0.305-1.312-0.438
			C71.085,334.752,71.799,334.504,72.43,334.5z M62.274,375.719c0.358-0.061,0.625,0.157,0.625,0.594c0,0.582-0.45,1.062-1,1.062
			c-1.281,0-1.281-0.708,0-1.5C62.037,375.79,62.154,375.739,62.274,375.719z"/>
	</g>
</g>
</svg>
